<?xml version="1.0" encoding="UTF-8"?>
<svg id="Calque_1" data-name="Calque 1" xmlns="http://www.w3.org/2000/svg" viewBox="0 0 1940.5 780.21">
  <defs>
    <style>
      .cls-1 {
        fill: #fff;
      }

      .cls-2, .cls-3 {
        fill: #bf5c66;
      }

      .cls-4 {
        fill: #ac9fa8;
        stroke: #fff;
        stroke-miterlimit: 10;
        stroke-width: 2px;
      }

      .cls-3 {
        opacity: .2;
      }

      .cls-5 {
        fill: #3c2364;
      }

      .cls-6 {
        fill: #9c469f;
      }

      .cls-7 {
        fill: #713992;
      }
    </style>
  </defs>
  <path class="cls-2" d="M1031.99,665.36c-2.21-20.96-3.43-48,2.5-62.08-26.29-24.83-51.04-56.65-47.3-97.59,7.81-85.48,25.96-243.55-19.58-248.08-18.2-1.81-78.1,4.8-32.85,51.2,45.25,46.4,47.27,116.43,6.26,197.42-19.89,39.29-43.04,72.42-61.16,99,1.38,24.74,2.71,50.93,3.67,70.14,57.39-3.62,106.2-6.97,148.47-10.02Z"/>
  <path class="cls-3" d="M142,454.21c18.89-7.51,38.2-9.35,56.89-7.47,10.19-4.69,23.04-7.79,39.12-7.53,54.05,.9,83.2,41.47,102.05,77.69,22.25-7.61,41.58-7.67,57.65-3.92,3.68-.11,6.98,0,9.89,.23,13.05,1,30.91-1.58,42.2,21.71,37.38-43.71,130-33.71,137.83,24.29,48.27-42,123.93,8,125.24,51,.23,7.46,.37,14.31,.46,20.56,40.03-26.62,89.54-39.1,114.67-12.56,49-61,47-8,47-8v2.16c1.57-2.33,16.34-.72,18-3.16-1.78-31.85,43.21-.98,42-10-2.99-22.29-41-116-148.17-97-4.83-46-124.83-15-151.83-8-4-28-36-58-65.35-55.02s-73.65,21.02-105.65,63.02c-9-38-54-50-81-24-11-49-69-96-111.52-71.58-21.52-29.58-48.48-47.42-66.48-47.42s-63,1-95,17C88,311.21,0,320.8,0,320.8v89.85s97-23.43,142,43.57Z"/>
  <path class="cls-2" d="M875.01,675.91c2.86-.18,5.69-.36,8.51-.53-.95-19.21-2.29-45.41-3.67-70.14-1.66,2.44-3.28,4.82-4.85,7.14v63.54Z"/>
  <path class="cls-3" d="M875.02,675.91c5.07-.18,10.12-.36,15.12-.53-1.69-19.21,10.45-71.52,8-96.26-2.95,2.44-32.21,48.67-35,51l11.88,45.79Z"/>
  <path class="cls-3" d="M587.63,559.21c-7.83-58-100.45-68-137.83-24.29-11.29-23.29-29.15-20.71-42.2-21.71-2.91-.22-6.21-.34-9.89-.23,31.92,7.44,51,29.83,54.59,37.72,43.7-52.49,60.7,92.51,60.7,92.51,0,0,29-79,77-32,85-70,75.96,51,79.48,60,11.02-14.79,26.55-28.93,43.85-40.44-.09-6.25-.24-13.1-.46-20.56-1.3-43-76.97-93-125.24-51Z"/>
  <path class="cls-3" d="M587.63,559.21c-7.83-58-100.45-68-137.83-24.29-11.29-23.29-29.15-20.71-42.2-21.71-2.91-.22-6.21-.34-9.89-.23,31.92,7.44,51,29.83,54.59,37.72,43.7-52.49,60.7,92.51,60.7,92.51,0,0,29-79,77-32,85-70,75.96,51,79.48,60,11.02-14.79,26.55-28.93,43.85-40.44-.09-6.25-.24-13.1-.46-20.56-1.3-43-76.97-93-125.24-51Z"/>
  <path class="cls-3" d="M238.01,439.21c-16.08-.27-28.93,2.84-39.12,7.53,68.38,6.86,128.54,63.48,130.11,74.47,3.76-1.65,7.45-3.07,11.06-4.31-18.85-36.22-48-76.79-102.05-77.69Z"/>
  <path class="cls-3" d="M238.01,439.21c-16.08-.27-28.93,2.84-39.12,7.53,68.38,6.86,128.54,63.48,130.11,74.47,3.76-1.65,7.45-3.07,11.06-4.31-18.85-36.22-48-76.79-102.05-77.69Z"/>
  <path class="cls-2" d="M787,681.21c31.39-1.82,60.66-3.59,88.01-5.3l33.12-25.79-16-58s-15.13-34.9-64.13,26.1c-25.14-26.53-74.65-14.06-114.67,12.56-17.3,11.51-32.83,25.65-43.85,40.44-3.52-9,5.52-130-79.48-60-48-47-77,32-77,32,0,0-17-145-60.7-92.51-3.59-7.89-22.67-30.29-54.59-37.72-16.07-3.74-35.4-3.69-57.65,3.92-3.61,1.24-7.3,2.66-11.06,4.31-1.57-10.99-61.73-67.62-130.11-74.47-18.69-1.87-38-.04-56.89,7.47C97,387.21,0,410.65,0,410.65v229.56c204.32,42.33,372.48,52.1,489,53.01,36.73,.29,92.77-.12,298-12.02Z"/>
  <path class="cls-3" d="M1066.42,605.17s33.36-37.53,81.97-41.24c24.15-1.85,51.1,4.63,73.59,12.59,14.83-28.61,38.29-52.59,65.02-31.31,21-33,69-100,174-22,6.73-22.67,21.83-37.95,41.02-47.31-21.33-.42-42.2,13.26-48.02,37.84-32-42-76.3-60.03-105.65-63.02s-61.35,27.02-65.35,55.02c-27-7-108.65-39-151.83,8-51.17-24-154.19-8.81-157.17,13.48-.94,6.99,61.38,78.67,50,99l19-32c8.83-2.57,16.7,3.1,23.42,10.96Z"/>
  <path class="cls-3" d="M1640.94,483.09c5.93-16.9,18.93-32.87,46.88-32.87,59.34,0,63.8,18,81.68,28,24.92-35,71.67-73.07,139.31-71.54,4.24,.1,8,.18,11.33,.25v-74.61s-88.5-9.59-110.63,55.41c-32.18-16-77.44-17-95.54-17s-45.21,17.84-66.86,47.42c-35.29-20.15-81.19,8.34-102.36,46.46,34.05-3.15,70.83,4.62,96.2,18.47Z"/>
  <path class="cls-2" d="M1461,523.21c-105-78-153-11-174,22-26.74-21.28-50.2,2.69-65.02,31.31,22.78,8.07,40.98,17.67,47.02,21.69,12,8,367-76,367-76,0,0-2.24-20.15,4.39-39.13-25.22-13.86-61.79-21.62-95.65-18.47-15.22,1.41-29.88,5.02-42.71,11.29-19.2,9.37-34.3,24.65-41.02,47.31Z"/>
  <path class="cls-2" d="M1024.81,600.28c-7.79,14.76-6.19,43.1-3.28,65.08,20.31-1.17,39.47-2.29,57.61-3.36l17-25.88c-8.83-8.24-36-49-60-51s-11.32,15.16-11.32,15.16Z"/>
  <path class="cls-2" d="M1920,687.21v-82.04l-579.3,39.84c149.03-6.07,342.83-4.59,579.3,42.2Z"/>
  <path class="cls-3" d="M1920,406.68v.3c46.12,1.01,0-.3,0-.3Z"/>
  <path class="cls-3" d="M1918,434.27c1.28-.43,2-.62,2-.62v-26.67c-.65-.01-1.31-.03-2-.04v27.34Z"/>
  <path class="cls-3" d="M1768.22,478.21c-17.78-10-22.22-28-81.22-28-27.79,0-40.71,15.97-46.61,32.87,14.55,8,25.33,18.01,29.61,29.13,5-6,84-19,98,22,0-7,39-68,84-10,5.36-66.06,55.33-86.35,66-89.94v-27.34c-3.31-.07-7.04-.16-11.26-.25-67.26-1.54-113.74,36.54-138.52,71.54Z"/>
  <path class="cls-3" d="M1769.2,478.21c-17.92-10-22.39-28-81.84-28-28,0-41.02,15.97-46.97,32.87,14.66,8,25.53,18.01,29.84,29.13,5.04-6,84.64-19,98.75,22,0-7,39.3-68,84.64-10,5.4-66.06,55.76-86.35,66.51-89.94v-27.34c-3.33-.07-7.1-.16-11.35-.25-67.78-1.54-114.61,36.54-139.59,71.54Z"/>
  <path class="cls-3" d="M1148.39,563.93c-48.61,3.72-81.97,41.24-81.97,41.24,11.56,13.51,19.69,33.47,23.32,29.04,5.74-7,53.26-76,116.26,0-2.73-6.82,3.63-33.86,15.98-57.69-22.49-7.96-49.44-14.44-73.59-12.59Z"/>
  <path class="cls-3" d="M1148.39,563.93c-48.61,3.72-81.97,41.24-81.97,41.24,11.56,13.51,19.69,33.47,23.32,29.04,5.74-7,53.26-76,116.26,0-2.73-6.82,3.63-33.86,15.98-57.69-22.49-7.96-49.44-14.44-73.59-12.59Z"/>
  <path class="cls-2" d="M1852,524.21c-45-58-84,3-84,10-14-41-93-28-98-22-4.28-11.12-15.06-21.13-29.61-29.13-6.63,18.98-4.39,39.13-4.39,39.13,0,0-355,84-367,76-6.04-4.03-24.24-13.62-47.02-21.69-12.35,23.83-18.71,50.88-15.98,57.69-63-76-110.52-7-116.26,0-3.63,4.43-11.76-15.53-23.32-29.04l9.4,56.97c71.75-5.33,122.51-9.47,166.18-12.04,30.35-1.79,63.26-3.65,98.7-5.1l579.3-39.84v-171.53s-.72,.19-2,.62c-10.67,3.59-60.64,23.88-66,89.94Z"/>
  <path class="cls-3" d="M1852,524.21c-45-58-84,3-84,10-14-41-93-28-98-22-4.28-11.12-15.06-21.13-29.61-29.13-6.63,18.98-4.39,39.13-4.39,39.13,0,0-355,84-367,76-6.04-4.03-24.24-13.62-47.02-21.69-12.35,23.83-18.71,50.88-15.98,57.69-63-76-110.52-7-116.26,0-3.63,4.43-11.76-15.53-23.32-29.04l9.4,56.97c71.75-5.33,122.51-9.47,166.18-12.04,30.35-1.79,63.26-3.65,98.7-5.1l579.3-39.84v-171.53s-.72,.19-2,.62c-10.67,3.59-60.64,23.88-66,89.94Z"/>
  <g>
    <path class="cls-5" d="M956.16,164.88s107.69,44.14,135.14,91.1c-32.5-12.5-112.41-22.1-109.26-20.98,3.15,1.11-25.88-70.11-25.88-70.11Z"/>
    <path class="cls-5" d="M850.96,226.38s-14.38,115.5,13.06,162.45c5.06-34.45,35.91-108.78,35.33-105.49-.58,3.29-48.39-56.96-48.39-56.96Z"/>
    <path class="cls-6" d="M796.32,.03c24.27-1.59,99.35,53.13,144.17,117.32,16.54,23.69,30.19,51.65,30.19,51.65,15.83,32.42,24.67,61.65,29.82,83.36l-93.91,54.89s-57.2-54.76-88.98-130.68C785.84,100.65,780.28,15.71,796.32,.03Z"/>
    <path class="cls-7" d="M953.54,279.8l-48.43,28.31s-57.2-54.76-88.98-130.68c-31.78-75.92-37.33-160.86-21.29-176.54"/>
    <circle class="cls-4" cx="852.74" cy="105.64" r="21.75"/>
    <polygon class="cls-1" points="998.84 245.65 1000.5 252.36 905.11 308.11 900.29 303.26 998.84 245.65"/>
    <path class="cls-5" d="M1030.76,411.06s-73.91-212.68-113.37-193.96c-39.46,18.71,113.37,193.96,113.37,193.96Z"/>
  </g>
  <path class="cls-2" d="M.13,618.12l-.13,96.79c204.32,44.96,372.48,55.34,489,56.3,36.73,.3,92.77-.12,298-12.76,252.96-15.58,368.05-27.59,455-33.03,157.96-9.88,385.3-6.72,678,54.8v-105.1l-279.87-29-216-15-751,53-545-21L.13,618.12Z"/>
</svg>